{"title":"Barnens O ( 1980 ) DVD RIP Uncut","uid":10203747,"size":1117220456,"categoryP":"video","categoryS":"movies","magnet":"?xt=urn:btih:00e2b0e32be0168239850f336dbe49280f5e9064&amp;dn=Barnens+O+%28+1980+%29+DVD+RIP+Uncut&amp;tr=udp%3A%2F%2Ftracker.openbittorrent.com%3A80&amp;tr=udp%3A%2F%2Fopen.demonii.com%3A1337&amp;tr=udp%3A%2F%2Ftracker.coppersurfer.tk%3A6969&amp;tr=udp%3A%2F%2Fexodus.desync.com%3A6969","seeders":5,"leechers":0,"uploader":"jmanwf","files":-1,"time":1400809504,"description":"Storyline\n\nReine is supposed to go to a summer camp called 'Childrens island' but decides to remain in Stockholm over the summer while his mother is working at a hospital. She thinks he is at the camp and he tells her he his. We then follow him around Stockholm that summer and see what he encounter on the path of life.\n\n\n\nFormat : MPEG-4\nFormat profile : Base Media / Version 2\nCodec ID : mp42\nFile size : 1.03 GiB\nDuration : 1h 43mn\nOverall bit rate mode : Variable\nOverall bit rate : 1 416 Kbps\nEncoded date : UTC 2014-05-22 11:05:53\nTagged date : UTC 2014-05-22 12:57:48\nWriting application : HandBrake 0.9.9 2013052900\n\nVideo\nID : 1\nFormat : AVC\nFormat/Info : Advanced Video Codec\nFormat profile : &lt;a class=&quot;__cf_email__&quot; href=&quot;/cdn-cgi/l/email-protection&quot; data-cfemail=&quot;276a464e49676b130917&quot;&gt;[email&amp;#160;protected]&lt;/a&gt;&lt;script data-cfhash='f9e31' type=&quot;text/javascript&quot;&gt;\n/* &lt;![CDATA[ */!function(){try{var t=&quot;currentScript&quot;in document?document.currentScript:function(){for(var t=document.getElementsByTagName(&quot;script&quot;),e=t.length;e--;)if(t[e].getAttribute(&quot;data-cfhash&quot;))return t[e]}();if(t&amp;&amp;t.previousSibling){var e,r,n,i,c=t.previousSibling,a=c.getAttribute(&quot;data-cfemail&quot;);if(a){for(e=&quot;&quot;,r=parseInt(a.substr(0,2),16),n=2;a.length-n;n+=2)i=parseInt(a.substr(n,2),16)^r,e+=String.fromCharCode(i);e=document.createTextNode(e),c.parentNode.replaceChild(e,c)}t.parentNode.removeChild(t);}}catch(u){}}()/* ]]&gt; */&lt;/script&gt;\nFormat settings, CABAC : Yes\nFormat settings, ReFrames : 8 frames\nCodec ID : avc1\nCodec ID/Info : Advanced Video Coding\nDuration : 1h 43mn\nBit rate : 1 065 Kbps\nWidth : 506 pixels\nHeight : 576 pixels\nDisplay aspect ratio : 1.278\nFrame rate mode : Constant\nFrame rate : 25.000 fps\nColor space : YUV\nChroma subsampling : 4:2:0\nBit depth : 8 bits\nScan type : Progressive\nBits/(Pixel*Frame) : 0.146\nStream size : 792 MiB (75%)\nWriting library : x264 core 130 r2273 b3065e6\nEncoding settings : cabac=1 / ref=8 / deblock=1:0:0 / a\nEncoded date : UTC 2014-05-22 11:05:53\nTagged date : UTC 2014-05-22 12:57:48\nColor primaries : BT.601 PAL\nTransfer characteristics : BT.709\nMatrix coefficients : BT.601\n\n\nAudio\nID : 2\nFormat : AAC\nFormat/Info : Advanced Audio Codec\nFormat profile : LC\nCodec ID : 40\nDuration : 1h 43mn\nBit rate mode : Variable\nBit rate : 353 Kbps\nMaximum bit rate : 458 Kbps\nChannel(s) : 2 channels\nChannel positions : Front: L R\nSampling rate : 48.0 KHz\nCompression mode : Lossy\nStream size : 258 MiB (24%)\nEncoded date : UTC 2014-05-22 11:05:53\nTagged date : UTC 2014-05-22 12:57:47\n\n\n\n &lt;a href=&quot;\nhttp://www.imdb.com/title/tt0080419/&quot; rel=&quot;nofollow&quot; target=&quot;_NEW&quot;&gt;\nhttp://www.imdb.com/title/tt0080419/&lt;/a&gt;","torrent":{"xt":"urn:btih:00e2b0e32be0168239850f336dbe49280f5e9064","amp;dn":"Barnens+O+%28+1980+%29+DVD+RIP+Uncut","amp;tr":["udp%3A%2F%2Ftracker.openbittorrent.com%3A80","udp%3A%2F%2Fopen.demonii.com%3A1337","udp%3A%2F%2Ftracker.coppersurfer.tk%3A6969","udp%3A%2F%2Fexodus.desync.com%3A6969"],"infoHash":"00e2b0e32be0168239850f336dbe49280f5e9064","infoHashBuffer":{"type":"Buffer","data":[0,226,176,227,43,224,22,130,57,133,15,51,109,190,73,40,15,94,144,100]},"announce":[],"urlList":[]}}